<?xml version="1.0" encoding="UTF-8"?>
<svg version="1.1" xmlns="http://www.w3.org/2000/svg" width="512" height="512">
<path d="M0 0 C4.1763176 2.89902459 7.96651659 6.26072742 11.796875 9.59375 C15.11992154 12.47509041 18.54729466 15.19733456 22.0234375 17.890625 C28.1791924 22.67572862 34.21218042 27.59859002 40.20874023 32.58154297 C44.10624524 35.81624357 48.05250156 38.9504513 52.0859375 42.015625 C56.91921799 45.92671228 59.6835155 48.91218114 60.7109375 55.296875 C61.62802436 70.12311251 49.23879969 83.38548728 41.3359375 95.140625 C40.16951819 96.88449568 39.00349973 98.62863454 37.83789062 100.37304688 C19.82163877 127.30402436 19.82163877 127.30402436 12.5234375 130.953125 C6.56293478 132.09937552 1.30428997 131.63115962 -4.1015625 128.828125 C-7.99046775 125.49477764 -11.3855193 122.17470387 -12.0703125 116.9609375 C-12.52209072 107.54136169 -10.01986967 102.20642374 -4.7265625 94.578125 C-3.97466606 93.44091041 -3.22602503 92.30153748 -2.48046875 91.16015625 C-0.58731897 88.2816237 1.33106696 85.42357172 3.2734375 82.578125 C-20.14731328 88.93895469 -41.73391132 98.20441738 -60.7265625 113.578125 C-61.64695312 114.29613281 -62.56734375 115.01414062 -63.515625 115.75390625 C-98.43388565 143.44261152 -118.67475968 184.5033194 -124.19140625 228.265625 C-124.46953544 231.37457589 -124.63069851 234.45855106 -124.7265625 237.578125 C-124.778125 238.63644531 -124.8296875 239.69476563 -124.8828125 240.78515625 C-125.95747718 280.68208258 -112.37122718 318.49514827 -87.7265625 349.578125 C-86.96085937 350.54878906 -86.19515625 351.51945312 -85.40625 352.51953125 C-58.54610731 385.98089545 -17.45615867 405.87178355 24.640625 411.171875 C41.86039763 412.93277341 59.31825808 411.86889794 76.2734375 408.578125 C77.32700439 408.37727295 77.32700439 408.37727295 78.40185547 408.17236328 C120.27666901 399.83781053 157.68626974 372.59272205 181.2734375 337.578125 C206.00664997 300.06455368 214.95350796 254.71066267 205.95678711 210.6730957 C203.53953924 199.54613836 200.32383179 188.80299252 195.42431641 178.49804688 C191.80339901 170.81208536 189.7146679 164.23241381 191.2734375 155.578125 C193.5589568 150.65546805 196.99038456 147.76763251 201.2734375 144.578125 C206.63722883 142.79019456 212.16116088 142.88757303 217.5234375 144.640625 C223.70114459 148.99310045 227.29665211 154.78448276 230.2109375 161.640625 C230.71125488 162.79812256 230.71125488 162.79812256 231.22167969 163.97900391 C252.64739436 214.92842097 252.54686379 271.87565934 232.2578125 323.14453125 C222.82593102 346.19633114 209.07765729 367.15494155 191.74804688 385.05224609 C190.72708961 386.10870022 189.71320605 387.17201917 188.70507812 388.24072266 C153.89765211 425.11704884 103.79171994 447.75980467 53.10888672 449.69921875 C-1.48019271 451.26629438 -54.75762602 434.61418756 -95.1394043 396.95214844 C-96.6741181 395.4999785 -98.20024352 394.03911147 -99.7265625 392.578125 C-100.55607422 391.79743652 -100.55607422 391.79743652 -101.40234375 391.00097656 C-139.43399238 355.09412094 -161.07397445 303.96796873 -162.8515625 251.91796875 C-163.83427246 204.58025206 -150.28774558 159.40998717 -121.7265625 121.578125 C-121.10523438 120.7428125 -120.48390625 119.9075 -119.84375 119.046875 C-110.78149677 107.27771497 -100.16800216 96.04690265 -88.7265625 86.578125 C-87.78039062 85.794375 -86.83421875 85.010625 -85.859375 84.203125 C-63.11942813 65.84943554 -35.1900083 52.13334282 -6.7265625 45.578125 C-6.7265625 44.918125 -6.7265625 44.258125 -6.7265625 43.578125 C-8.73090281 41.73139602 -10.74554546 39.98935416 -12.8515625 38.265625 C-13.42132813 37.79189453 -13.99109375 37.31816406 -14.578125 36.83007812 C-16.8490426 34.94366816 -19.12123543 33.06098053 -21.42919922 31.2199707 C-26.08755175 27.46375893 -28.2537557 24.2029771 -29.04296875 18.15234375 C-29.32939159 12.06354861 -28.35186357 8.4771805 -24.7265625 3.578125 C-17.68025831 -3.10683026 -8.70349245 -4.88496414 0 0 Z " fill="#ffffff" transform="translate(213.7265625,32.421875)"/>
</svg>
